<svg xmlns="http://www.w3.org/2000/svg" width="960" height="260" viewBox="0 0 960 260" role="img" aria-label="Banner de Kaique Pereira Ramos">
<style>text{font-family:JetBrains Mono,Segoe UI,Arial,sans-serif}.kicker{font-size:11px;letter-spacing:2px;fill:#8B949E}.name{font-size:34px;font-weight:800;fill:#F0F6FC}.role{font-size:15px;font-weight:600;letter-spacing:1.2px;fill:#00D9FF}.meta{font-size:11px;fill:#8B949E}.label{font-size:9px;letter-spacing:1.4px;fill:#8B949E}.value{font-size:12px;font-weight:700;fill:#F0F6FC}.cursor{animation:blink 1.1s steps(1,end) infinite}@keyframes blink{0%,45%{opacity:1}50%,100%{opacity:0}}</style>
<rect width="960" height="260" rx="14" fill="#0D1117"/>
<rect x="1" y="1" width="958" height="258" rx="13" fill="none" stroke="#00D9FF" stroke-opacity=".42"/>
<g>
<line x1="0" y1="0" x2="0" y2="260" stroke="#00D9FF" stroke-opacity=".055"/>
<line x1="40" y1="0" x2="40" y2="260" stroke="#00D9FF" stroke-opacity=".055"/>
<line x1="80" y1="0" x2="80" y2="260" stroke="#00D9FF" stroke-opacity=".055"/>
<line x1="120" y1="0" x2="120" y2="260" stroke="#00D9FF" stroke-opacity=".055"/>
<line x1="160" y1="0" x2="160" y2="260" stroke="#00D9FF" stroke-opacity=".055"/>
<line x1="200" y1="0" x2="200" y2="260" stroke="#00D9FF" stroke-opacity=".055"/>
<line x1="240" y1="0" x2="240" y2="260" stroke="#00D9FF" stroke-opacity=".055"/>
<line x1="280" y1="0" x2="280" y2="260" stroke="#00D9FF" stroke-opacity=".055"/>
<line x1="320" y1="0" x2="320" y2="260" stroke="#00D9FF" stroke-opacity=".055"/>
<line x1="360" y1="0" x2="360" y2="260" stroke="#00D9FF" stroke-opacity=".055"/>
<line x1="400" y1="0" x2="400" y2="260" stroke="#00D9FF" stroke-opacity=".055"/>
<line x1="440" y1="0" x2="440" y2="260" stroke="#00D9FF" stroke-opacity=".055"/>
<line x1="480" y1="0" x2="480" y2="260" stroke="#00D9FF" stroke-opacity=".055"/>
<line x1="520" y1="0" x2="520" y2="260" stroke="#00D9FF" stroke-opacity=".055"/>
<line x1="560" y1="0" x2="560" y2="260" stroke="#00D9FF" stroke-opacity=".055"/>
<line x1="600" y1="0" x2="600" y2="260" stroke="#00D9FF" stroke-opacity=".055"/>
<line x1="640" y1="0" x2="640" y2="260" stroke="#00D9FF" stroke-opacity=".055"/>
<line x1="680" y1="0" x2="680" y2="260" stroke="#00D9FF" stroke-opacity=".055"/>
<line x1="720" y1="0" x2="720" y2="260" stroke="#00D9FF" stroke-opacity=".055"/>
<line x1="760" y1="0" x2="760" y2="260" stroke="#00D9FF" stroke-opacity=".055"/>
<line x1="800" y1="0" x2="800" y2="260" stroke="#00D9FF" stroke-opacity=".055"/>
<line x1="840" y1="0" x2="840" y2="260" stroke="#00D9FF" stroke-opacity=".055"/>
<line x1="880" y1="0" x2="880" y2="260" stroke="#00D9FF" stroke-opacity=".055"/>
<line x1="920" y1="0" x2="920" y2="260" stroke="#00D9FF" stroke-opacity=".055"/>
<line x1="960" y1="0" x2="960" y2="260" stroke="#00D9FF" stroke-opacity=".055"/>
<line x1="0" y1="0" x2="960" y2="0" stroke="#00D9FF" stroke-opacity=".055"/>
<line x1="0" y1="40" x2="960" y2="40" stroke="#00D9FF" stroke-opacity=".055"/>
<line x1="0" y1="80" x2="960" y2="80" stroke="#00D9FF" stroke-opacity=".055"/>
<line x1="0" y1="120" x2="960" y2="120" stroke="#00D9FF" stroke-opacity=".055"/>
<line x1="0" y1="160" x2="960" y2="160" stroke="#00D9FF" stroke-opacity=".055"/>
<line x1="0" y1="200" x2="960" y2="200" stroke="#00D9FF" stroke-opacity=".055"/>
<line x1="0" y1="240" x2="960" y2="240" stroke="#00D9FF" stroke-opacity=".055"/>
</g>
<path d="M1 48H18L34 32H245" fill="none" stroke="#00D9FF" stroke-opacity=".55"/>
<path d="M959 212H942L926 228H715" fill="none" stroke="#00D9FF" stroke-opacity=".55"/>
<rect x="0" y="0" width="4" height="260" rx="2" fill="#00D9FF"/>
<text x="46" y="34" class="kicker">KPR // DEVELOPER PROFILE // BRASIL</text>
<text x="46" y="88" class="name">KAIQUE PEREIRA RAMOS</text>
<text x="46" y="120" class="role">DESENVOLVEDOR EM FORMAÇÃO<tspan class="cursor">_</tspan></text>
<text x="46" y="151" class="meta">PYTHON  //  BACKEND  //  AUTOMAÇÕES  //  INTELIGÊNCIA ARTIFICIAL</text>
<circle cx="822" cy="104" r="69" fill="none" stroke="#00D9FF" stroke-opacity=".22"/>
<circle cx="822" cy="104" r="48" fill="none" stroke="#00D9FF" stroke-opacity=".38"/>
<circle cx="822" cy="104" r="20" fill="none" stroke="#00D9FF" stroke-opacity=".62"/>
<path d="M742 104H902M822 24V184" stroke="#00D9FF" stroke-opacity=".18"/>
<path d="M822 36A68 68 0 0 1 890 104" fill="none" stroke="#00D9FF" stroke-width="3"/>
<circle cx="847" cy="82" r="4" fill="#67E8F9"/>
<circle cx="788" cy="125" r="3" fill="#0891B2"/>
<text x="760" y="193" class="label">SIGNAL // STABLE</text>
<rect x="46" y="184" width="250" height="48" rx="7" fill="#161B22" stroke="#00D9FF" stroke-opacity=".25"/>
<text x="62" y="202" class="label">PYTHON CORE</text>
<text x="62" y="221" class="value">INTERMEDIÁRIO</text>
<rect x="316" y="184" width="250" height="48" rx="7" fill="#161B22" stroke="#00D9FF" stroke-opacity=".25"/>
<text x="332" y="202" class="label">BACKEND MODULE</text>
<text x="332" y="221" class="value">LEARNING</text>
<rect x="586" y="184" width="250" height="48" rx="7" fill="#161B22" stroke="#00D9FF" stroke-opacity=".25"/>
<text x="602" y="202" class="label">BUILD MODE</text>
<text x="602" y="221" class="value">ACTIVE</text>
<rect x="-30" y="0" width="28" height="260" fill="#00D9FF" opacity=".08"><animate attributeName="x" from="-30" to="990" dur="7s" repeatCount="indefinite"/></rect>
</svg>